<?xml version="1.0" encoding="UTF-8" standalone="no"?>
<!-- Created with Inkscape (http://www.inkscape.org/) -->

<svg
   version="1.1"
   id="svg1"
   width="333.33334"
   height="163.33333"
   viewBox="0 0 333.33334 163.33333"
   xmlns="http://www.w3.org/2000/svg"
   xmlns:svg="http://www.w3.org/2000/svg">
  <defs
     id="defs1" />
  <g
     id="g1">
    <path
       style="fill:#121833;stroke:none"
       d="m 61.555558,49.999997 42.666672,9.33333 c -5.711257,6.4731 -13.63771,16.27805 -22.000005,19.105819 -9.360515,3.165328 -17.540426,0.06995 -26.666667,5.560851 v 1.333334 c 6.927276,2.920918 17.660563,9.271667 25.333334,8.140838 6.868444,-1.012278 13.467601,-8.768412 18.666667,-12.942515 13.581541,-10.904021 27.105851,-21.880527 40.666671,-32.810387 7.0922,-5.71623 14.42391,-11.25537 21.25868,-17.27703 2.09717,-1.84768 6.13408,-5.10954 5.34144,-8.38658 -0.6078,-2.51281 -4.046,-2.26816 -5.97451,-1.95119 -5.18597,0.85236 -10.1441,3.4476 -14.57852,6.15971 -6.54467,4.00274 -12.44163,11.51697 -20.10808,13.14599 -20.73766,4.40649 -47.102798,-3.69442 -64.605682,10.58783 m 124.666672,-16 c -4.37366,5.10132 -9.6749,9.57082 -10,16.66667 -6.03399,2.71775 -7.86423,8.32962 -12.0816,12.98759 -5.13331,5.669583 -11.31385,9.298988 -15.9184,15.679074 h -0.66667 l -10,-8.666667 -26,22.666666 9.33334,-5.999999 c 0.68524,3.181437 3.04752,0.870381 5.33333,0.574076 4.964,-0.643473 9.04539,-3.677917 14,-3.240743 l -1.33333,-8 c 3.50184,3.013402 5.00615,5.356674 4,10 l 22.66666,-3.488235 17.33334,6.821568 c -5.68583,-8.865921 -14.57888,-13.352335 -23.33334,-18.666666 9.33849,-5.115884 13.51677,-16.180244 21.66285,-23.005534 2.49971,-2.09442 8.82584,-2.27827 6.29248,2.57123 -1.55581,2.9782 -6.59145,4.45971 -9.0566,6.7219 -2.31682,2.12607 -4.27357,4.59732 -6.23206,7.04574 7.22604,0.64674 10.8911,5.427457 16.71511,9.114499 9.22927,5.84283 18.98606,9.800898 27.95156,16.218831 v -4 h 0.66667 l 4,11.333333 h 0.66666 c 0.87301,-10.776336 10.88988,-2.194458 16,0.666667 -7.1725,-9.686116 -16.18827,-17.192347 -23.77026,-26.316151 -3.91189,-4.707377 -5.67267,-10.787539 -9.62484,-15.475899 -6.68211,-7.92684 -12.89467,-12.35333 -17.27156,-22.20795 h -1.33334 m -43.33333,14 -20,18.666668 c 13.5259,5.145812 20.22727,-6.050178 20,-18.666668 m 88,2.66667 -16,18.666664 6,-4.000004 -1.33333,2.000004 c 2.29915,-1.444914 15.64323,-13.549024 12.66813,-2.790904 -0.32977,1.19248 -0.85691,2.321229 -1.3348,3.457571 l 11.33333,2 v 10.666666 h 1.33334 c 6.03639,-5.112335 7.2063,3.368851 8,8 h 0.66666 l 1.99999,-7.333333 18,6.666666 V 87.333331 C 260.21435,82.98749 254.41788,74.668434 245.96281,65.824437 240.8983,60.526987 235.51992,56.546117 230.8889,50.666667 m -10.66667,29.999997 c -9.98077,-3.262227 -17.84729,-9.547495 -24,-17.999997 10.8642,1.20379 16.63365,10.891731 24,17.999997 M 99.555559,102.66666 v 0.66667 c 32.349951,-11.606567 68.540531,-8.34261 101.333341,0.14371 24.90259,6.44443 57.62485,13.67915 73.99999,-12.810376 -4.5475,3.882192 -9.13031,7.658864 -14.66687,10.057326 -22.27841,9.65111 -45.44719,-1.888259 -67.33312,-6.637852 -30.45697,-6.609639 -65.71704,-7.876139 -93.333341,8.580522 M 42.888893,102 37.555553,119.33333 58.888891,126 c -1.159073,-5.99992 -7.568468,-7.01924 -12.666668,-8.66667 l 0.66667,-2.66667 11.333331,3.33334 0.666667,-3.33334 -10.666668,-3.33333 c 4.61288,-2.55162 9.366273,-0.20058 14.000001,1.33333 L 63.555558,108 42.888893,102 m 243.333337,2 4,12 c -7.82809,-5.24867 -13.21644,-8.50568 -22.66667,-6 l 5.33333,17.33333 c 8.02234,-2.04007 5.90859,-7.54838 4,-14 2.83171,1.90026 5.65975,3.86912 8.67599,5.47035 16.49322,8.75574 14.46905,-18.22175 0.65735,-14.80368 m -208.000005,8.66666 6,20.66667 c 9.901876,1.04156 15.52117,-7.21998 20.666675,-14.66667 -7.946582,-1.15395 -11.449715,3.69995 -15.333341,10 h -0.666667 c -1.58815,-7.70429 -2.416575,-13.53681 -10.666667,-16 m 163.331835,3.88912 c -4.40063,0.38117 -9.46496,2.25621 -11.67216,6.3558 -3.95563,7.34708 3.46668,13.15747 10.3418,12.68141 4.33197,-0.29994 9.41337,-1.9814 11.73901,-5.92474 4.38574,-7.43642 -3.31887,-13.72656 -10.40865,-13.11247 m -1.7244,6.00608 c 4.65478,-1.47628 7.37058,5.11935 2.66424,6.90528 -4.93557,1.87292 -7.81173,-5.27274 -2.66424,-6.90528 m -122.2741,16.77147 15.30011,-1.37764 L 147.55556,142 c -2.55545,-5.52791 -6.04484,-17.27728 -12.80837,-18.79263 -7.34351,-1.64528 -14.07534,11.06959 -17.19163,16.12596 m 85.33334,-16.66667 c 0.45371,7.59308 -0.61998,17.95327 9.33333,17.33334 l -2,-18 -7.33333,0.66666 M 178.22223,136 l -14,1.33333 c 4.25788,4.70622 11.03542,6.97421 17.09444,3.93059 6.76032,-3.39589 2.44583,-8.97398 -3.06738,-9.98625 -1.98932,-0.36526 -4.01249,-0.48013 -6.02706,-0.61101 l 14,-1.33333 c -4.25913,-4.70758 -11.03367,-6.97186 -17.09444,-3.93116 -5.70315,2.86127 -3.59606,8.34684 1.8023,9.58542 2.3821,0.54654 4.86996,0.71526 7.29214,1.01241 m -44,-8 2,5.33333 h -6 L 132.8889,128 Z"
       id="path1" />
  </g>
</svg>
