<svg width="47" height="42" viewBox="0 0 47 42" fill="none" xmlns="http://www.w3.org/2000/svg">
<path d="M37.5999 5.6001H9.39993C7.66877 5.6001 6.2666 6.8531 6.2666 8.4001V33.6001C6.2666 35.1471 7.66877 36.4001 9.39993 36.4001H25.0666V23.8001H20.3666V19.6001H25.0666V17.3447C25.0666 13.0747 27.3947 11.2001 31.3662 11.2001C33.2681 11.2001 34.2739 11.3261 34.7502 11.3835V15.4001H32.0414C30.3557 15.4001 29.7666 16.1953 29.7666 17.8053V19.6001H34.7079L34.0373 23.8001H29.7666V36.4001H37.5999C39.3311 36.4001 40.7333 35.1471 40.7333 33.6001V8.4001C40.7333 6.8531 39.3295 5.6001 37.5999 5.6001Z" fill="#3E3E3E"/>
</svg>
