<svg width="35" height="36" viewBox="0 0 35 36" fill="none" xmlns="http://www.w3.org/2000/svg">
<path d="M17.4999 1.43995C8.61657 1.43995 1.3999 8.86281 1.3999 17.9999C1.3999 20.9369 2.18299 23.6778 3.48897 26.0704L1.42588 33.6459C1.35881 33.8926 1.42419 34.1573 1.5976 34.3412C1.771 34.5251 2.0263 34.6003 2.26806 34.5388L9.94755 32.5813C12.2041 33.8205 14.7647 34.5599 17.4999 34.5599C26.3832 34.5599 33.5999 27.1371 33.5999 17.9999C33.5999 8.8628 26.3832 1.43995 17.4999 1.43995ZM17.4999 2.87995C25.6266 2.87995 32.1999 9.64109 32.1999 17.9999C32.1999 26.3588 25.6266 33.1199 17.4999 33.1199C14.8945 33.1199 12.4544 32.4213 10.3331 31.2004C10.178 31.1112 9.99565 31.0861 9.82314 31.1301L3.09795 32.8443L4.90127 26.2265C4.95341 26.0375 4.92822 25.8348 4.83154 25.6654C3.54238 23.4169 2.7999 20.8008 2.7999 17.9999C2.7999 9.64108 9.37323 2.87995 17.4999 2.87995ZM11.6497 9.35995C11.201 9.35995 10.5601 9.53166 10.0337 10.1151C9.71749 10.4655 8.39991 11.786 8.39991 14.1074C8.39991 16.5277 10.0319 18.6162 10.2292 18.8845H10.2306V18.8859C10.2119 18.8606 10.481 19.2615 10.8403 19.7423C11.1996 20.2231 11.7021 20.8545 12.3333 21.5381C13.5957 22.9052 15.3707 24.4853 17.5737 25.4517C18.5883 25.896 19.3886 26.1643 19.995 26.3601C21.1188 26.7231 22.1424 26.6679 22.9112 26.5514C23.4867 26.4642 24.1197 26.18 24.746 25.7723C25.3723 25.3646 25.9861 24.8578 26.2567 24.0876C26.4506 23.5355 26.5492 23.0253 26.5849 22.6054C26.6027 22.3955 26.6049 22.2102 26.5917 22.0387C26.5784 21.8672 26.5926 21.7358 26.4372 21.4734C26.1113 20.923 25.7422 20.9086 25.3571 20.7126C25.1432 20.6037 24.534 20.2977 23.923 19.9982C23.3126 19.6991 22.7841 19.4342 22.4587 19.3148C22.2531 19.2387 22.002 19.1292 21.6397 19.1714C21.2775 19.2136 20.9197 19.4824 20.7114 19.8C20.514 20.101 19.7192 21.066 19.4769 21.3496C19.4736 21.3476 19.4947 21.3576 19.3989 21.3089C19.0992 21.1563 18.7327 21.0266 18.1903 20.7323C17.648 20.438 16.9695 20.0034 16.2271 19.3303V19.3289C15.122 18.3282 14.348 17.0719 14.1038 16.65C14.1203 16.6298 14.1019 16.6542 14.1366 16.619L14.138 16.6176C14.3875 16.3648 14.6087 16.0628 14.7956 15.8414C15.0606 15.5274 15.1775 15.2506 15.3042 14.992C15.5567 14.4766 15.4161 13.9095 15.27 13.6111V13.6096C15.2801 13.6303 15.191 13.4281 15.095 13.1948C14.9988 12.9609 14.8761 12.6576 14.745 12.3342C14.4829 11.6874 14.1903 10.9619 14.0163 10.537V10.5356C13.8113 10.0351 13.534 9.67455 13.1714 9.50059C12.8088 9.32664 12.4884 9.3761 12.4755 9.37544H12.4741C12.2154 9.36316 11.9314 9.35995 11.6497 9.35995ZM11.6497 10.7999C11.9196 10.7999 12.1857 10.8033 12.4085 10.814C12.6377 10.8258 12.6235 10.8267 12.5794 10.8056C12.5346 10.7841 12.5954 10.7771 12.7257 11.0953C12.8961 11.5113 13.1901 12.2394 13.453 12.8882C13.5845 13.2126 13.7075 13.5171 13.8058 13.7559C13.904 13.9947 13.9573 14.128 14.019 14.2551V14.2565L14.0204 14.2579C14.081 14.3808 14.0756 14.3021 14.0546 14.3451C13.9069 14.6466 13.8868 14.7207 13.7374 14.8977C13.5099 15.1673 13.2778 15.468 13.155 15.5924C13.0475 15.701 12.8536 15.8702 12.7325 16.2013C12.6113 16.533 12.6679 16.988 12.8624 17.3277C13.1214 17.78 13.975 19.209 15.3015 20.4102C16.1368 21.1677 16.9151 21.669 17.5368 22.0063C18.1585 22.3437 18.6649 22.5407 18.7782 22.5984C19.0473 22.7353 19.3414 22.8417 19.6833 22.7995C20.0253 22.7572 20.3201 22.5438 20.5077 22.3256L20.5091 22.3242C20.7588 22.0329 21.501 21.1613 21.8571 20.624C21.8722 20.6295 21.8673 20.6252 21.9856 20.669V20.6704H21.987C22.041 20.6902 22.7179 21.0018 23.3214 21.2976C23.9249 21.5934 24.5374 21.9008 24.7364 22.0021C25.0237 22.1483 25.1594 22.2435 25.1944 22.244C25.1968 22.3073 25.1992 22.376 25.1903 22.4803C25.1658 22.7694 25.0906 23.1697 24.9401 23.5982C24.8664 23.808 24.4824 24.2407 23.9981 24.5559C23.5139 24.8711 22.9244 25.0938 22.7062 25.1268C22.0498 25.2263 21.2706 25.2626 20.4147 24.9862C19.8213 24.7946 19.0814 24.5466 18.1233 24.127C16.1803 23.2746 14.5288 21.8242 13.3491 20.5467C12.7593 19.9079 12.2867 19.3132 11.9505 18.8634C11.6149 18.4144 11.4684 18.1807 11.3462 18.0154L11.3448 18.014C11.1279 17.719 9.7999 15.819 9.7999 14.1074C9.7999 12.2961 10.6179 11.5858 11.0604 11.0953C11.2928 10.8377 11.5468 10.7999 11.6497 10.7999Z" fill="#3E3E3E"/>
</svg>
