<svg width="36" height="38" viewBox="0 0 36 38" fill="none" xmlns="http://www.w3.org/2000/svg">
<path d="M10.7402 2.81252C6.06447 2.81252 2.25 6.73293 2.25 11.5386V24.158C2.25 28.9546 6.06445 32.875 10.7402 32.875H23.0186C27.6856 32.875 31.5 28.9546 31.5 24.1489V11.5386C31.5 6.73293 27.6856 2.8125 23.0098 2.8125L10.7402 2.81252ZM10.7402 5.12502H23.0098C26.4727 5.12502 29.25 7.97953 29.25 11.5386V24.149C29.25 27.708 26.4727 30.5625 23.0186 30.5625H10.7403C7.27738 30.5625 4.50002 27.7081 4.50002 24.158V11.5386C4.50002 7.97955 7.27735 5.12502 10.7402 5.12502ZM25.875 7.43752C25.251 7.43752 24.75 7.95242 24.75 8.59377C24.75 9.23512 25.251 9.75002 25.875 9.75002C26.499 9.75002 27 9.23512 27 8.59377C27 7.95242 26.499 7.43752 25.875 7.43752ZM16.875 9.75002C12.542 9.75002 9 13.3904 9 17.8438C9 22.2971 12.542 25.9375 16.875 25.9375C21.208 25.9375 24.75 22.2971 24.75 17.8438C24.75 13.3904 21.208 9.75002 16.875 9.75002ZM16.875 12.0625C19.9951 12.0625 22.5 14.637 22.5 17.8438C22.5 21.0506 19.9951 23.625 16.875 23.625C13.7549 23.625 11.25 21.0506 11.25 17.8438C11.25 14.637 13.7549 12.0625 16.875 12.0625Z" fill="#3E3E3E"/>
</svg>
