<?xml version="1.0" encoding="UTF-8" standalone="no"?>
<!-- Created with Inkscape (http://www.inkscape.org/) -->

<svg
   version="1.1"
   id="svg1"
   width="100"
   height="100"
   viewBox="0 0 100 100"
   xmlns="http://www.w3.org/2000/svg"
   xmlns:svg="http://www.w3.org/2000/svg">
  <defs
     id="defs1" />
  <g
     id="g1">
    <g
       id="g2"
       transform="matrix(1.3918368,0,0,1.3918367,-19.591837,-19.319727)">
      <path
         style="fill:#fdfdfd"
         d="M 0,50 V 0 h 50 50 v 50 50 H 50 0 Z M 78.641787,85.908248 C 82.501748,83.99484 84.013693,82.472614 86,78.5 88.453901,73.592199 88.5,73.066667 88.5,50 88.5,26.933333 88.453901,26.407801 86,21.5 84,17.5 82.5,16 78.5,14 73.592199,11.546099 73.066667,11.5 50,11.5 c -23.066667,0 -23.592199,0.0461 -28.5,2.5 -4,2 -5.5,3.5 -7.5,7.5 -2.453901,4.907801 -2.5,5.433333 -2.5,28.5 0,23.071139 0.04562,23.590941 2.5,28.483227 4.615846,9.200725 9.913929,10.535042 40.141787,10.109671 18.443745,-0.259544 19.938112,-0.423293 24.5,-2.68465 z M 28.45739,58.952917 C 26.625959,56.929208 26.738375,56.772263 38.302403,45.208236 L 50,33.510638 61.733452,45.24409 73.466903,56.977541 71.287977,59.156467 c -1.562799,1.5628 -2.547802,1.894109 -3.483452,1.171672 -0.717489,-0.55399 -5.006049,-4.035754 -9.530135,-7.737254 l -8.225609,-6.73 -9.225035,7.569558 C 35.749977,57.593699 31.308745,61 30.954343,61 30.599941,61 29.476312,60.078812 28.45739,58.952917 Z"
         id="path3" />
      <path
         style="fill:#131c46"
         d="M 28.833585,88.075518 C 20.909244,86.965433 16.980975,84.425177 14,78.483227 11.545623,73.590941 11.5,73.071139 11.5,50 c 0,-23.066667 0.0461,-23.592199 2.5,-28.5 2,-4 3.5,-5.5 7.5,-7.5 4.907801,-2.453901 5.433333,-2.5 28.5,-2.5 23.066667,0 23.592199,0.0461 28.5,2.5 4,2 5.5,3.5 7.5,7.5 2.453901,4.907801 2.5,5.433333 2.5,28.5 0,23.066667 -0.0461,23.592199 -2.5,28.5 -1.986307,3.972614 -3.498252,5.49484 -7.358213,7.408248 -4.561888,2.261357 -6.056255,2.425106 -24.5,2.68465 -10.802983,0.152021 -22.191674,-0.0808 -25.308202,-0.51738 z m 11.990161,-34.645075 9.225035,-7.569558 8.225609,6.73 c 4.524086,3.7015 8.812646,7.183264 9.530135,7.737254 0.93565,0.722437 1.920653,0.391128 3.483452,-1.171672 L 73.466903,56.977541 61.733452,45.24409 50,33.510638 38.302403,45.208236 C 26.738375,56.772263 26.625959,56.929208 28.45739,58.952917 29.476312,60.078812 30.599941,61 30.954343,61 c 0.354402,0 4.795634,-3.406301 9.869403,-7.569557 z"
         id="path2" />
    </g>
  </g>
</svg>
