<?xml version="1.0" encoding="UTF-8" standalone="no"?>
<!-- Created with Inkscape (http://www.inkscape.org/) -->

<svg
   version="1.1"
   id="svg1"
   width="304"
   height="314"
   viewBox="0 0 304 314"
   xmlns="http://www.w3.org/2000/svg"
   xmlns:svg="http://www.w3.org/2000/svg">
  <defs
     id="defs1" />
  <g
     id="g1">
    <g
       id="g2"
       transform="matrix(0.89544007,0,0,0.85798826,17.224531,27.201116)"
       style="fill:#131c46;fill-opacity:1">
      <path
         style="fill:#131c46;fill-opacity:1"
         d="m 233.5,253 c 0.99549,-1.1 2.03498,-2 2.30998,-2 0.275,0 -0.31449,0.9 -1.30998,2 -0.99549,1.1 -2.03498,2 -2.30998,2 -0.275,0 0.31449,-0.9 1.30998,-2 z M 94.872445,218.25 c -1.243871,-1.58606 -1.208501,-1.62143 0.377555,-0.37756 0.9625,0.75485 1.75,1.54235 1.75,1.75 0,0.82304 -0.821186,0.29331 -2.127555,-1.37244 z m 24.999995,-30 c -1.24387,-1.58606 -1.2085,-1.62143 0.37756,-0.37756 0.9625,0.75485 1.75,1.54235 1.75,1.75 0,0.82304 -0.82119,0.29331 -2.12756,-1.37244 z m -4,-4 c -1.24387,-1.58606 -1.2085,-1.62143 0.37756,-0.37756 0.9625,0.75485 1.75,1.54235 1.75,1.75 0,0.82304 -0.82119,0.29331 -2.12756,-1.37244 z M 258.8125,164.31689 c 0.72187,-0.28887 1.58438,-0.25335 1.91667,0.0789 0.33229,0.33229 -0.25834,0.56864 -1.3125,0.52522 -1.16495,-0.048 -1.4019,-0.28494 -0.60417,-0.60416 z m -34.73355,-7.90022 c 0.048,-1.16495 0.28494,-1.4019 0.60416,-0.60417 0.28887,0.72187 0.25335,1.58437 -0.0789,1.91667 -0.3323,0.33229 -0.56864,-0.25834 -0.52522,-1.3125 z m -84,-83.000003 c 0.048,-1.164943 0.28494,-1.4019 0.60416,-0.604167 0.28887,0.721875 0.25335,1.584375 -0.0789,1.916667 -0.3323,0.332291 -0.56864,-0.258334 -0.52522,-1.3125 z m 0,-28 c 0.048,-1.164943 0.28494,-1.4019 0.60416,-0.604167 0.28887,0.721875 0.25335,1.584375 -0.0789,1.916667 -0.3323,0.332291 -0.56864,-0.258334 -0.52522,-1.3125 z"
         id="path8" />
      <path
         style="fill:#131c46;fill-opacity:1"
         d="M 89.946167,213.25 86.5,209.5 l 3.75,3.44617 C 93.740419,216.15378 94.459787,217 93.696167,217 c -0.167108,0 -1.854608,-1.6875 -3.75,-3.75 z M 191.40499,111.75 189.5,109.5 l 2.25,1.90499 c 2.11444,1.79022 2.70524,2.59501 1.90499,2.59501 -0.18976,0 -1.20226,-1.0125 -2.25,-2.25 z m 11.46745,-7.5 c -1.24387,-1.58606 -1.2085,-1.62143 0.37756,-0.37756 1.66575,1.30637 2.19548,2.12756 1.37244,2.12756 -0.20765,0 -0.99515,-0.7875 -1.75,-1.75 z"
         id="path7" />
      <path
         style="fill:#131c46;fill-opacity:1"
         d="m 194.76166,266.29274 c 1.24391,-0.23919 3.04391,-0.23011 4,0.0202 0.95609,0.25029 -0.0617,0.446 -2.26166,0.4349 -2.2,-0.0111 -2.98225,-0.21589 -1.73834,-0.45508 z m 71.31729,-114.87607 c 0.048,-1.16495 0.28494,-1.4019 0.60416,-0.60417 0.28887,0.72187 0.25335,1.58437 -0.0789,1.91667 -0.33229,0.33229 -0.56864,-0.25834 -0.52522,-1.3125 z m -228.000003,-46 c 0.04798,-1.16495 0.284941,-1.4019 0.604167,-0.60417 0.288871,0.72187 0.253344,1.58437 -0.07895,1.91667 -0.332292,0.33229 -0.568641,-0.25834 -0.52522,-1.3125 z"
         id="path6" />
      <path
         style="fill:#131c46;fill-opacity:1"
         d="m 266.19495,155.5 c 0.0204,-1.65 0.2445,-2.20394 0.49804,-1.23097 0.25354,0.97297 0.23687,2.32297 -0.0371,3 -0.27393,0.67703 -0.48137,-0.11903 -0.46099,-1.76903 z M 38.157895,109 c 0,-1.375 0.226973,-1.9375 0.504386,-1.25 0.277412,0.6875 0.277412,1.8125 0,2.5 -0.277413,0.6875 -0.504386,0.125 -0.504386,-1.25 z M 147.75,52.337719 c 0.6875,-0.277412 1.8125,-0.277412 2.5,0 0.6875,0.277413 0.125,0.504386 -1.25,0.504386 -1.375,0 -1.9375,-0.226973 -1.25,-0.504386 z m 0.0117,-14.04498 c 1.24391,-0.239193 3.04391,-0.230112 4,0.02018 0.95609,0.250292 -0.0617,0.445996 -2.26166,0.434897 -2.2,-0.0111 -2.98225,-0.215885 -1.73834,-0.455077 z"
         id="path5" />
      <path
         style="fill:#131c46;fill-opacity:1"
         d="m 238.07895,154.41667 c 0.048,-1.16495 0.28494,-1.4019 0.60416,-0.60417 0.28887,0.72187 0.25335,1.58437 -0.0789,1.91667 -0.3323,0.33229 -0.56864,-0.25834 -0.52522,-1.3125 z m 14,-1 c 0.048,-1.16495 0.28494,-1.4019 0.60416,-0.60417 0.28887,0.72187 0.25335,1.58437 -0.0789,1.91667 -0.3323,0.33229 -0.56864,-0.25834 -0.52522,-1.3125 z M 210.92431,92.25 208.5,89.5 l 2.75,2.424314 C 213.82029,94.190201 214.45859,95 213.67431,95 c -0.17912,0 -1.41662,-1.2375 -2.75,-2.75 z M 149.75,66.337719 c 0.6875,-0.277412 1.8125,-0.277412 2.5,0 0.6875,0.277413 0.125,0.504386 -1.25,0.504386 -1.375,0 -1.9375,-0.226973 -1.25,-0.504386 z"
         id="path4" />
      <path
         style="fill:#131c46;fill-opacity:1"
         d="m 224.07895,258.41667 c 0.048,-1.16495 0.28494,-1.4019 0.60416,-0.60417 0.28887,0.72187 0.25335,1.58438 -0.0789,1.91667 -0.3323,0.33229 -0.56864,-0.25834 -0.52522,-1.3125 z m -85.63782,-8.97184 c -1.86402,-1.49339 -1.85176,-1.51185 0.30887,-0.46481 1.2375,0.59969 2.25,1.29951 2.25,1.55516 0,0.76522 -0.51861,0.54424 -2.55887,-1.09035 z M 99.156575,221.66667 c -1.68162,-1.79001 -1.838638,-2.33334 -0.674314,-2.33334 0.834757,0 1.291757,0.22599 1.015557,0.50219 -0.2762,0.2762 0.243545,1.3262 1.154992,2.33333 2.43576,2.69149 1.07501,2.23478 -1.496235,-0.50218 z M 164,213.68709 c 0,-0.1721 1.4625,-1.6346 3.25,-3.25 l 3.25,-2.93709 -2.93709,3.25 C 164.82513,213.77946 164,214.45965 164,213.68709 Z m 12.15658,-12.35376 C 177.3622,200.05 178.82031,199 179.39682,199 c 0.57651,0 0.0405,0.70579 -1.19104,1.56842 -1.23158,0.86263 -2.02651,1.91263 -1.7665,2.33334 0.26001,0.4207 -0.19044,0.76491 -1.00101,0.76491 -1.0931,0 -0.90758,-0.60267 0.71831,-2.33334 z m 11.05399,-5.87137 c -1.06534,-1.2079 -1.0219,-1.46196 0.25,-1.46196 0.84669,0 1.53943,0.675 1.53943,1.5 0,1.82367 -0.15025,1.82047 -1.78943,-0.038 z M 190.5,196 c 0.33992,-0.55 0.81648,-1 1.05902,-1 0.24254,0 0.44098,0.45 0.44098,1 0,0.55 -0.47656,1 -1.05902,1 -0.58246,0 -0.7809,-0.45 -0.44098,-1 z m -75.88691,-11.18298 c 0.28881,-0.4673 0.94401,-0.59075 1.45601,-0.27431 1.30838,0.80862 1.16106,1.12396 -0.52511,1.12396 -0.80081,0 -1.21971,-0.38234 -0.9309,-0.84965 z M 64,181 c -0.588702,-1.1 -0.845368,-2 -0.570368,-2 0.275,0 0.981666,0.9 1.570368,2 0.588702,1.1 0.845368,2 0.570368,2 -0.275,0 -0.981666,-0.9 -1.570368,-2 z m 44.32466,-2.65799 c 0.36189,-0.3619 0.0994,-1.3744 -0.58334,-2.25 -1.09654,-1.40633 -1.0385,-1.433 0.49767,-0.2287 1.56442,1.22645 1.58594,3.13669 0.0353,3.13669 -0.33421,0 -0.31156,-0.2961 0.0503,-0.65799 z m 116.13422,-27.40854 c -0.36253,-0.58659 -0.44468,-1.281 -0.18255,-1.54313 0.26212,-0.26213 0.74306,0.21781 1.06875,1.06653 0.67618,1.76211 0.0999,2.07206 -0.8862,0.4766 z M 89,145.55902 c 0,-1.34254 0.368575,-2.66878 0.819056,-2.94719 0.450481,-0.27841 0.624406,0.82003 0.386501,2.44098 C 89.681021,148.6267 89,148.91266 89,145.55902 Z M 94,137.5 c 1.865783,-1.925 3.617334,-3.5 3.892334,-3.5 0.275,0 -1.026551,1.575 -2.892334,3.5 -1.865783,1.925 -3.617334,3.5 -3.892334,3.5 -0.275,0 1.026551,-1.575 2.892334,-3.5 z m 5.101746,-5.25 c 0.05596,-0.4125 2.418464,-2.75858 5.250004,-5.21352 l 5.14825,-4.46352 -4.96241,5.21352 c -5.071405,5.32803 -5.613514,5.77317 -5.435844,4.46352 z m 79.357134,-13.31653 c -0.36253,-0.58659 -0.44468,-1.281 -0.18255,-1.54313 0.26212,-0.26213 0.74306,0.21781 1.06875,1.06653 0.67618,1.76211 0.0999,2.07206 -0.8862,0.4766 z m -68.37993,-1.5168 c 0.048,-1.16495 0.28494,-1.4019 0.60416,-0.60417 0.28887,0.72187 0.25335,1.58437 -0.0789,1.91667 -0.3323,0.33229 -0.56864,-0.25834 -0.52522,-1.3125 z M 187.87244,109.25 c -1.24387,-1.58606 -1.2085,-1.62143 0.37756,-0.37756 1.66575,1.30637 2.19548,2.12756 1.37244,2.12756 -0.20765,0 -0.99515,-0.7875 -1.75,-1.75 z M 150.8125,94.316886 c 0.72187,-0.288871 1.58437,-0.253344 1.91667,0.07895 0.33229,0.332292 -0.25834,0.568641 -1.3125,0.52522 -1.16495,-0.04798 -1.4019,-0.284941 -0.60417,-0.604167 z M 223.92431,85.25 221.5,82.5 l 2.75,2.424314 C 226.82029,87.190201 227.45859,88 226.67431,88 c -0.17912,0 -1.41662,-1.2375 -2.75,-2.75 z M 49,74.570368 c 0,-0.275 0.9,-0.981666 2,-1.570368 1.1,-0.588702 2,-0.845368 2,-0.570368 0,0.275 -0.9,0.981666 -2,1.570368 -1.1,0.588702 -2,0.845368 -2,0.570368 z m 177,-5.629385 c 0,-0.582459 0.45,-0.780902 1,-0.440983 0.55,0.339919 1,0.816476 1,1.059017 C 228,69.801558 227.55,70 227,70 c -0.55,0 -1,-0.476558 -1,-1.059017 z m -13.43571,-9.234111 c 0.37553,-0.986221 0.93469,-1.541221 1.24258,-1.233333 0.30789,0.307887 6.4e-4,1.114794 -0.68278,1.793128 -0.98762,0.980267 -1.10248,0.865403 -0.5598,-0.559795 z M 152.8125,52.316886 c 0.72187,-0.288871 1.58437,-0.253344 1.91667,0.07895 0.33229,0.332292 -0.25834,0.568641 -1.3125,0.52522 -1.16495,-0.04798 -1.4019,-0.284941 -0.60417,-0.604167 z"
         id="path3" />
      <path
         style="fill:#131c46;fill-opacity:1"
         d="m 186,265.35216 c -7.4388,-1.11723 -15.0139,-2.71519 -19,-4.00803 -6.06793,-1.96806 -6.38882,-2.06724 -7.24047,-2.23772 -2.1529,-0.43095 -16.28752,-7.34268 -16.83825,-8.23378 -0.35469,-0.5739 -1.04458,-1.06592 -1.53308,-1.09339 -2.47768,-0.1393 -14.32565,-6.78511 -17.82676,-9.99946 C 122.49523,238.8009 121.23624,238 120.76369,238 c -0.47255,0 -2.03631,-1.2375 -3.475,-2.75 -1.4387,-1.5125 -2.22938,-2.08835 -1.75706,-1.27966 0.47232,0.80869 -1.02097,-0.0913 -3.31841,-2 -2.29744,-1.90869 -4.18528,-3.80784 -4.19519,-4.22034 -0.01,-0.4125 -0.60475,-0.75 -1.32186,-0.75 -1.86191,0 -7.883261,-6.46434 -6.963754,-7.47607 0.422174,-0.46452 0.223309,-0.53214 -0.441916,-0.15027 -1.5235,0.87456 -9.515826,-6.20006 -8.627714,-7.63705 0.355427,-0.5751 0.188448,-0.7627 -0.371064,-0.4169 C 89.359015,211.89615 83,205.87951 83,204.42057 c 0,-0.348 -1.148698,-1.5363 -2.552662,-2.64065 -1.403965,-1.10436 -2.382098,-2.17849 -2.173629,-2.38696 0.208468,-0.20847 -1.560588,-2.46186 -3.931236,-5.00754 -2.370648,-2.54568 -4.065957,-5.02382 -3.767354,-5.50697 C 70.873722,188.3953 70.706738,188 70.204044,188 68.647439,188 57.02122,169.30346 51.945156,158.63723 37.800061,128.91442 35.209285,102.39688 44.52764,82.716215 c 1.504415,-3.177372 4.138638,-6.93408 5.85383,-8.348239 1.715191,-1.41416 2.44353,-2.223121 1.61853,-1.797693 -1.019166,0.525554 -0.903134,0.09253 0.361971,-1.350856 2.685871,-3.064366 16.015671,-9.592851 23.913541,-11.712043 10.230139,-2.744998 11.339194,-1.764521 17.811105,15.746167 1.576132,4.264453 3.562981,9.101953 4.415219,10.75 C 99.484125,87.903087 99.649741,89 98.954252,89 98.315573,89 98.457339,89.600196 99.293524,90.436381 101.54005,92.682905 110,114.81981 110,118.4517 c 0,2.65214 -1.02303,4.22573 -5.5,8.45986 -3.025,2.86092 -5.5,5.31536 -5.5,5.45432 0,0.13897 -2.25,2.587 -5,5.44007 -5.291304,5.48964 -5.896224,7.56026 -3.539882,12.11693 0.803064,1.55295 1.178064,3.1056 0.833333,3.45034 C 90.94872,153.71795 91.119435,154 91.672818,154 c 0.553384,0 1.514921,1.11663 2.136749,2.48139 0.621829,1.36477 4.181561,6.59769 7.910513,11.62871 3.72896,5.03103 6.65627,9.57285 6.50514,10.09294 -0.15112,0.52009 0.11752,0.70317 0.59698,0.40685 1.37366,-0.84897 6.50948,5.04442 5.63253,6.46336 -0.49845,0.8065 -0.35163,0.98106 0.42265,0.50253 0.72553,-0.4484 3.4577,1.53102 7.03324,5.09549 3.21576,3.2058 6.23891,5.99339 6.71811,6.19464 2.15796,0.90629 7.15792,6.02187 6.54879,6.70023 -0.37264,0.41498 -0.13143,0.44095 0.53601,0.0577 0.66743,-0.38324 2.05542,0.10711 3.08442,1.08968 2.06599,1.97276 4.12134,3.27168 12.03575,7.60621 7.96292,4.36111 12.00091,3.53523 18.81868,-3.84892 3.30609,-3.58075 5.67467,-5.38673 6.44245,-4.91221 0.74627,0.46122 0.95551,0.33186 0.54295,-0.33568 -0.36918,-0.59735 0.33642,-1.79188 1.568,-2.65451 1.23158,-0.86263 1.8016,-1.58339 1.26673,-1.60169 -0.53488,-0.0183 0.0898,-0.9183 1.38827,-2 2.66018,-2.21615 6.71507,-2.60485 7.47694,-0.71673 0.40351,1 0.52017,1 0.58333,0 0.0434,-0.6875 0.55551,-1.25 1.13797,-1.25 0.58246,0 0.78131,0.44933 0.44191,0.9985 -0.33945,0.54924 0.19641,0.8867 1.19098,0.75 1.72008,-0.2364 21.25724,6.90734 22.30809,8.15694 0.275,0.32701 1.175,0.6734 2,0.76975 2.40603,0.28102 17.42841,6.72737 18.23469,7.82481 0.40408,0.55 0.74158,0.68591 0.75,0.30202 0.0237,-1.07942 6.01531,1.26614 6.01531,2.35482 0,0.52866 0.46971,0.6709 1.0438,0.31609 0.5741,-0.35481 1.67017,-0.12528 2.43573,0.51008 2.31239,1.91911 2.70127,6.40305 1.00636,11.60367 -2.20813,6.77534 -2.22072,6.81713 -2.31584,7.68577 -0.0465,0.42485 -1.75387,3.9491 -3.7941,7.83165 -3.99531,7.60311 -13.03797,16.02493 -14.58823,13.58667 -0.52844,-0.83114 -0.76172,-0.71818 -0.77241,0.37402 -0.0471,4.81535 -23.95703,9.39877 -38.01531,7.28737 z M 199.55152,161.63533 C 197.58897,159.81649 197,158.29171 197,155.02967 c 0,-5.31819 -2.50817,-15.14528 -5.22448,-20.46969 -1.13919,-2.23299 -1.96628,-4.23467 -1.83797,-4.44818 0.1283,-0.2135 -0.17587,-0.6635 -0.67593,-1 -0.50006,-0.33649 -3.2385,-3.20406 -6.08541,-6.37239 -2.84692,-3.16832 -5.19052,-5.41832 -5.20801,-5 -0.0175,0.41833 -0.65152,-0.0569 -1.40894,-1.056 -0.75742,-0.99912 -1.53061,-1.69849 -1.71819,-1.55414 -0.18759,0.14435 -3.0024,-1.03961 -6.25514,-2.63103 -6.5614,-3.2102 -6.28457,-3.14004 -16.08593,-4.07633 -10.44243,-0.99752 -14.339,-5.69632 -9.58727,-11.561126 1.66643,-2.056786 2.6644,-2.329849 7.75,-2.12055 9.45205,0.389002 16.0322,2.174377 25.36934,6.883396 19.99124,10.08221 33.43805,30.62823 34.23803,52.31392 0.20257,5.49121 -0.0507,6.45965 -2.13088,8.14722 -3.13013,2.53937 -5.49634,2.41553 -8.5877,-0.44944 z m 29.01991,0.79324 c -0.86429,-0.86428 -1.57832,-1.20178 -1.58674,-0.75 -0.008,0.45179 -0.46145,0.14643 -1.00672,-0.67857 -0.54526,-0.825 -0.96593,-3.525 -0.9348,-6 0.0465,-3.69594 -1.50121,-13.89314 -3.1873,-21 -0.61333,-2.58521 -10.44758,-21.49538 -12.44862,-23.93731 C 205.86531,105.74032 195.90436,96.518769 191.68834,93.659048 179.52921,85.411512 164.17216,80.388418 149.5,79.859778 142.22753,79.59775 138.54867,73.451335 143,69 c 3.17986,-3.179862 16.23239,-2.593294 31,1.39311 5.49114,1.482292 16.31935,6.635687 22.71378,10.810014 9.68393,6.321743 17.17438,13.386952 24.24885,22.872236 5.92051,7.93808 13.58136,24.06464 12.62085,26.56768 -0.35873,0.93484 -0.14344,1.20303 0.59791,0.74485 0.77368,-0.47816 0.94638,-0.16325 0.51993,0.94807 -0.3512,0.91522 -0.24887,1.66404 0.22741,1.66404 1.27244,0 3.07127,11.58227 3.07127,19.77521 0,6.21508 -0.28012,7.30758 -2.22251,8.66809 -2.82967,1.98198 -5.21423,1.9771 -7.20606,-0.0147 z m 26.58017,-0.49623 c -1.44389,-1.54982 -2.10178,-4.24208 -2.62692,-10.75 -0.94603,-11.72381 -2.84623,-21.29119 -5.88272,-29.61902 -1.39109,-3.81517 -2.25746,-7.41517 -1.92528,-8 0.33218,-0.58482 0.22036,-0.71436 -0.24849,-0.28785 -0.46886,0.42651 -2.2285,-1.92893 -3.91033,-5.23431 C 235.6369,98.369738 226.07314,86.193651 218,79.321661 213.875,75.810393 209.2625,71.878419 207.75,70.583942 206.2375,69.289465 205,68.434161 205,68.683268 c 0,0.249106 -1.2375,-0.407115 -2.75,-1.45827 -1.5125,-1.051155 -5.1125,-2.962013 -8,-4.246351 -2.8875,-1.284339 -5.25,-2.779945 -5.25,-3.323571 0,-0.543625 -0.26096,-0.727448 -0.57991,-0.408496 -0.31896,0.318952 -3.58146,-0.440605 -7.25,-1.687905 -7.14636,-2.429747 -15.44302,-4.023306 -26.67009,-5.122586 -9.85934,-0.965361 -10.56371,-1.149037 -12.08199,-3.150587 -1.95182,-2.573072 -1.72097,-5.583186 0.62095,-8.096941 C 144.75204,39.349785 146.16952,39 151.90796,39 163.30596,39 187,43.889535 187,46.241639 c 0,0.482017 0.4196,0.617068 0.93245,0.300112 0.51284,-0.316956 3.55034,0.629129 6.75,2.102411 3.19965,1.473282 6.06006,2.718551 6.35645,2.767266 0.2964,0.04872 3.11836,1.651884 6.27102,3.5626 3.79651,2.30092 5.54845,3.952659 5.18821,4.891443 -0.44439,1.158055 -0.26742,1.187945 0.96714,0.163348 1.23422,-1.024305 1.62404,-0.959664 2.12768,0.352813 0.33914,0.883785 0.9408,1.406525 1.33703,1.161646 0.39622,-0.244879 2.90202,1.557705 5.56844,4.005743 C 225.16483,67.99706 227.65528,70 228.03275,70 c 0.86534,0 10.25812,10.628876 15.22586,17.229604 5.64763,7.504113 12.55883,20.746026 16.21516,31.068386 3.61122,10.195 6.03624,21.64374 5.23414,24.71094 -0.28676,1.09661 -0.11336,1.74165 0.38535,1.43343 0.51367,-0.31746 0.90674,2.93317 0.90674,7.49862 0,6.72569 -0.33089,8.38991 -2,10.05902 -2.58102,2.58102 -6.40805,2.55176 -8.8484,-0.0677 z"
         id="path2" />
    </g>
  </g>
</svg>
